<?xml version="1.0" encoding="utf-8"?>
<!-- Generator: Adobe Illustrator 24.1.1, SVG Export Plug-In . SVG Version: 6.00 Build 0)  -->
<svg version="1.1" id="Layer_1" xmlns="http://www.w3.org/2000/svg" xmlns:xlink="http://www.w3.org/1999/xlink" x="0px" y="0px"
	 viewBox="0 0 512 512" style="enable-background:new 0 0 512 512;" xml:space="preserve">
<g>
	<path d="M256,0C114.6,0,0,114.6,0,256s114.6,256,256,256s256-114.6,256-256S397.4,0,256,0z M374.6,329.4
		c12.5,12.5,12.5,32.7,0,45.3c-6.2,6.2-14.4,9.4-22.6,9.4s-16.4-3.1-22.6-9.4L256,301.3l-73.4,73.4c-6.2,6.2-14.4,9.4-22.6,9.4
		s-16.4-3.1-22.6-9.4c-12.5-12.5-12.5-32.7,0-45.3l73.4-73.4l-73.4-73.4c-12.5-12.5-12.5-32.7,0-45.3s32.7-12.5,45.3,0l73.4,73.4
		l73.4-73.4c12.5-12.5,32.7-12.5,45.3,0s12.5,32.7,0,45.3L301.3,256L374.6,329.4z"/>
</g>
</svg>
